<svg width="100%" viewBox="0 0 53 43" fill="none" xmlns="http://www.w3.org/2000/svg">
<path d="M43.4692 10.704H1.42011C0.152728 10.704 -0.477381 9.15993 0.424822 8.26733L8.34057 0.410307C8.60551 0.147566 8.96352 0 9.33586 0H51.385C52.6524 0 53.2824 1.54405 52.3802 2.43665L44.4645 10.2937C44.1996 10.5564 43.8416 10.704 43.4692 10.704Z" fill="url(#paint0_linear_1463_6642)"/>
<path d="M9.33586 26.5297H51.385C52.6524 26.5297 53.2824 24.9856 52.3802 24.093L44.4645 16.236C44.1996 15.9732 43.8416 15.8257 43.4692 15.8257H1.42011C0.152728 15.8257 -0.477381 17.3697 0.424822 18.2623L8.34057 26.1194C8.60551 26.3821 8.96352 26.5297 9.33586 26.5297Z" fill="url(#paint1_linear_1463_6642)"/>
<path d="M43.4692 42.3552H1.42011C0.152728 42.3552 -0.477381 40.8112 0.424822 39.9186L8.34057 32.0616C8.60551 31.7988 8.96352 31.6512 9.33586 31.6512H51.385C52.6524 31.6512 53.2824 33.1953 52.3802 34.0879L44.4645 41.9449C44.1996 42.2077 43.8416 42.3552 43.4692 42.3552Z" fill="url(#paint2_linear_1463_6642)"/>
<defs>
<linearGradient id="paint0_linear_1463_6642" x1="49.6772" y1="-6.40655" x2="2.39369" y2="17.2299" gradientUnits="userSpaceOnUse">
<stop offset="0.04" stop-color="#00EEB7"/>
<stop offset="0.88" stop-color="#8E98DB"/>
</linearGradient>
<linearGradient id="paint1_linear_1463_6642" x1="0.00236156" y1="21.1777" x2="52.8027" y2="21.1777" gradientUnits="userSpaceOnUse">
<stop offset="0.04" stop-color="#9D89E9"/>
<stop offset="0.88" stop-color="#5CBFCC"/>
</linearGradient>
<linearGradient id="paint2_linear_1463_6642" x1="0.00236156" y1="36.9996" x2="52.8027" y2="36.9996" gradientUnits="userSpaceOnUse">
<stop offset="0.03" stop-color="#E549F1"/>
<stop offset="0.88" stop-color="#8E98DB"/>
</linearGradient>
</defs>
</svg>
