<svg width="100%" viewBox="0 0 55 46" fill="none" xmlns="http://www.w3.org/2000/svg">
<g clip-path="url(#clip0_1469_6849)">
<path d="M53.2108 21.8962L31.6187 43.4884C29.2126 45.8945 25.3128 45.8766 22.9246 43.4526L1.75283 21.8784C-0.250744 19.839 -0.572747 16.6905 0.965714 14.2844L8.32707 2.81753C9.45409 1.0644 11.3951 0 13.4791 0H41.4756C43.5507 0 45.4827 1.05546 46.6097 2.79964L54.0158 14.2487C55.5811 16.6726 55.2412 19.8569 53.2018 21.8962H53.2108Z" fill="#00A2A4"/>
<path d="M39.9732 6.50269H14.8569V12.7191H23.7389V21.2343H31.0913V12.7191H39.9732V6.50269Z" fill="white"/>
<path d="M31.0822 26.4222H23.7388V34.4366H31.0822V26.4222Z" fill="white"/>
<path d="M27.4151 15.4651C17.9607 15.4651 10.3042 18.1395 10.3042 21.4311C10.3042 24.7227 17.9697 27.3971 27.4151 27.3971C36.8605 27.3971 44.526 24.7227 44.526 21.4311C44.526 18.1395 36.8605 15.4651 27.4151 15.4651ZM27.4151 24.508C19.8659 24.508 14.6423 23.0411 14.6423 21.2433C14.6423 19.4454 19.8659 17.9785 27.4151 17.9785C34.9643 17.9785 40.1879 19.4454 40.1879 21.2433C40.1879 23.0411 34.9643 24.508 27.4151 24.508Z" fill="white"/>
</g>
<defs>
<clipPath id="clip0_1469_6849">
<rect width="55" height="45.2773" fill="white"/>
</clipPath>
</defs>
</svg>
