<svg width="100%" viewBox="0 0 54 48" fill="none" xmlns="http://www.w3.org/2000/svg">
<path d="M10.7579 0C6.8026 0 3.27687 2.07606 1.36189 5.5302C-0.553102 8.98434 -0.44572 13.0649 1.66614 16.4295L18.5968 43.3825C20.0285 45.6555 22.1941 47.2841 24.6997 48V0H10.7579Z" fill="url(#paint0_linear_1427_6093)"/>
<path d="M29.1918 0V48C31.6974 47.2841 33.8629 45.6555 35.2947 43.3825L52.2253 16.4295C54.3372 13.0649 54.4446 8.98434 52.5296 5.5302C50.6146 2.07606 47.0889 0 43.1336 0H29.1918Z" fill="url(#paint1_linear_1427_6093)"/>
<path opacity="0.46" d="M24.6997 0V12.1879C17.9346 15.4094 11.7959 19.4183 6.44466 24.0179L1.66614 16.4295C-0.44572 13.0649 -0.553102 8.98434 1.36189 5.5302C3.27687 2.07606 6.8026 0 10.7579 0H24.6997Z" fill="#2ACBE4"/>
<path opacity="0.46" d="M51.6884 4.24161C47.071 4.79642 42.4177 5.78076 37.7645 7.15884C34.8115 8.03579 31.9658 9.03803 29.1918 10.1834V0H43.1336C46.5698 0 49.6839 1.57495 51.6884 4.24161Z" fill="#2ACBE4"/>
<defs>
<linearGradient id="paint0_linear_1427_6093" x1="11.0263" y1="4.11633" x2="27.7064" y2="35.9553" gradientUnits="userSpaceOnUse">
<stop stop-color="#46AEF5"/>
<stop offset="1" stop-color="#2A77A3"/>
</linearGradient>
<linearGradient id="paint1_linear_1427_6093" x1="28.1537" y1="3.86577" x2="48.4669" y2="40.4295" gradientUnits="userSpaceOnUse">
<stop stop-color="#46AEF5"/>
<stop offset="0.99" stop-color="#2A77A3"/>
</linearGradient>
</defs>
</svg>
