<svg width="100%" viewBox="0 0 68 68" fill="none" xmlns="http://www.w3.org/2000/svg">
<path d="M33.5426 67.4416C52.0677 67.4416 67.0852 52.3442 67.0852 33.7208C67.0852 15.0973 52.0677 0 33.5426 0C15.0175 0 0 15.0973 0 33.7208C0 52.3442 15.0175 67.4416 33.5426 67.4416Z" fill="#E22F22"/>
<path d="M48.447 18.104L11.8397 11.7982L30.8934 59.2967L57.247 27.4259L48.4434 18.1004L48.447 18.104ZM30.7931 48.7007C30.7287 49.2405 29.9876 49.3341 29.7907 48.8266L18.9965 21.1021C18.8031 20.6018 19.3903 20.1663 19.8056 20.501L32.7193 30.9135C32.8589 31.0287 32.9341 31.205 32.909 31.385L30.786 48.6971L30.7931 48.7007ZM22.5265 17.8089C22.1363 17.4669 22.4299 16.8227 22.9418 16.8947L42.7044 19.7524C43.1519 19.8172 43.3094 20.3823 42.9657 20.6702L34.5666 27.7498C34.3697 27.9154 34.0833 27.9118 33.89 27.7426L22.5265 17.8089ZM50.1511 30.6544L34.9103 49.2549C34.581 49.6581 33.933 49.3809 33.9902 48.8662L35.809 32.2848C35.834 32.0472 36.0166 31.8601 36.2493 31.8241L49.6714 29.8049C50.144 29.733 50.4554 30.2836 50.1511 30.6544ZM50.9567 26.4469L40.7245 28.4588C40.209 28.5596 39.8832 27.9154 40.2734 27.5591L46.6139 21.7428C46.818 21.5556 47.1295 21.5628 47.3264 21.7536L51.218 25.5543C51.5187 25.8494 51.3684 26.3641 50.9567 26.4433V26.4469Z" fill="white"/>
</svg>
