<svg width="100%" viewBox="0 0 750 68" fill="none" xmlns="http://www.w3.org/2000/svg">
<g filter="url(#filter0_ii_686_2561)">
<path fill-rule="evenodd" clip-rule="evenodd" d="M6.8216e-06 11.3899C49.72 3.60986 124.84 0.999869 238.65 0.999879L490.02 0.999901C621.44 0.999912 701.29 4.46992 750 15.3799L750 89.4199L0 89.4199L6.8216e-06 11.3899Z" fill="url(#paint0_linear_686_2561)"/>
</g>
<path d="M-0.0772636 10.8959L-0.499993 10.962L-0.499993 11.3899L-0.5 89.4199L-0.5 89.9199L-4.37113e-08 89.9199L750 89.9199L750.5 89.9199L750.5 89.4199L750.5 15.3799L750.5 14.9795L750.109 14.892C701.336 3.96772 621.428 0.499912 490.02 0.499901L238.65 0.499879C124.844 0.499869 49.6866 3.109 -0.0772636 10.8959Z" stroke="#6D4353" stroke-opacity="0.5"/>
<defs>
<filter id="filter0_ii_686_2561" x="-1" y="-22.7001" width="752" height="121.12" filterUnits="userSpaceOnUse" color-interpolation-filters="sRGB">
<feFlood flood-opacity="0" result="BackgroundImageFix"/>
<feBlend mode="normal" in="SourceGraphic" in2="BackgroundImageFix" result="shape"/>
<feColorMatrix in="SourceAlpha" type="matrix" values="0 0 0 0 0 0 0 0 0 0 0 0 0 0 0 0 0 0 127 0" result="hardAlpha"/>
<feOffset dy="-29"/>
<feGaussianBlur stdDeviation="11.35"/>
<feComposite in2="hardAlpha" operator="arithmetic" k2="-1" k3="1"/>
<feColorMatrix type="matrix" values="0 0 0 0 0.623529 0 0 0 0 0.392157 0 0 0 0 0.258824 0 0 0 0.5 0"/>
<feBlend mode="normal" in2="shape" result="effect1_innerShadow_686_2561"/>
<feColorMatrix in="SourceAlpha" type="matrix" values="0 0 0 0 0 0 0 0 0 0 0 0 0 0 0 0 0 0 127 0" result="hardAlpha"/>
<feOffset dy="10"/>
<feGaussianBlur stdDeviation="4"/>
<feComposite in2="hardAlpha" operator="arithmetic" k2="-1" k3="1"/>
<feColorMatrix type="matrix" values="0 0 0 0 1 0 0 0 0 0.792017 0 0 0 0 0.55 0 0 0 1 0"/>
<feBlend mode="normal" in2="effect1_innerShadow_686_2561" result="effect2_innerShadow_686_2561"/>
</filter>
<linearGradient id="paint0_linear_686_2561" x1="375" y1="11.3276" x2="375" y2="89.4199" gradientUnits="userSpaceOnUse">
<stop stop-color="#DFA868"/>
<stop offset="1" stop-color="#C38450"/>
</linearGradient>
</defs>
</svg>
