<svg width="100%" viewBox="0 0 56 57" fill="none" xmlns="http://www.w3.org/2000/svg">
<g filter="url(#filter0_dii_438_2656)">
<circle cx="28" cy="26" r="26" fill="url(#paint0_linear_438_2656)"/>
<circle cx="28" cy="26" r="25.5" stroke="#4A637F"/>
</g>
<g filter="url(#filter1_d_438_2656)">
<path fill-rule="evenodd" clip-rule="evenodd" d="M28 21C31.3137 21 34 18.3137 34 15C34 11.6863 31.3137 9 28 9C24.6863 9 22 11.6863 22 15C22 18.3137 24.6863 21 28 21ZM23 24H32.5L33.5 43L22 43.5L23 24Z" fill="white"/>
<path d="M32.5 24L32.9993 23.9737L32.9744 23.5H32.5V24ZM23 24V23.5H22.525L22.5007 23.9744L23 24ZM33.5 43L33.5217 43.4995L34.0258 43.4776L33.9993 42.9737L33.5 43ZM22 43.5L21.5007 43.4744L21.4725 44.0234L22.0217 43.9995L22 43.5ZM33.5 15C33.5 18.0376 31.0376 20.5 28 20.5V21.5C31.5899 21.5 34.5 18.5899 34.5 15H33.5ZM28 9.5C31.0376 9.5 33.5 11.9624 33.5 15H34.5C34.5 11.4101 31.5899 8.5 28 8.5V9.5ZM22.5 15C22.5 11.9624 24.9624 9.5 28 9.5V8.5C24.4101 8.5 21.5 11.4101 21.5 15H22.5ZM28 20.5C24.9624 20.5 22.5 18.0376 22.5 15H21.5C21.5 18.5899 24.4101 21.5 28 21.5V20.5ZM32.5 23.5H23V24.5H32.5V23.5ZM33.9993 42.9737L32.9993 23.9737L32.0007 24.0263L33.0007 43.0263L33.9993 42.9737ZM22.0217 43.9995L33.5217 43.4995L33.4783 42.5005L21.9783 43.0005L22.0217 43.9995ZM22.5007 23.9744L21.5007 43.4744L22.4993 43.5256L23.4993 24.0256L22.5007 23.9744Z" fill="#2C62AD"/>
</g>
<defs>
<filter id="filter0_dii_438_2656" x="0" y="-3" width="56" height="61" filterUnits="userSpaceOnUse" color-interpolation-filters="sRGB">
<feFlood flood-opacity="0" result="BackgroundImageFix"/>
<feColorMatrix in="SourceAlpha" type="matrix" values="0 0 0 0 0 0 0 0 0 0 0 0 0 0 0 0 0 0 127 0" result="hardAlpha"/>
<feOffset dy="3"/>
<feGaussianBlur stdDeviation="1"/>
<feComposite in2="hardAlpha" operator="out"/>
<feColorMatrix type="matrix" values="0 0 0 0 0.356863 0 0 0 0 0.172549 0 0 0 0 0.243137 0 0 0 0.45 0"/>
<feBlend mode="normal" in2="BackgroundImageFix" result="effect1_dropShadow_438_2656"/>
<feBlend mode="normal" in="SourceGraphic" in2="effect1_dropShadow_438_2656" result="shape"/>
<feColorMatrix in="SourceAlpha" type="matrix" values="0 0 0 0 0 0 0 0 0 0 0 0 0 0 0 0 0 0 127 0" result="hardAlpha"/>
<feMorphology radius="3" operator="erode" in="SourceAlpha" result="effect2_innerShadow_438_2656"/>
<feOffset dy="6"/>
<feGaussianBlur stdDeviation="2"/>
<feComposite in2="hardAlpha" operator="arithmetic" k2="-1" k3="1"/>
<feColorMatrix type="matrix" values="0 0 0 0 0.447059 0 0 0 0 0.898039 0 0 0 0 1 0 0 0 1 0"/>
<feBlend mode="normal" in2="shape" result="effect2_innerShadow_438_2656"/>
<feColorMatrix in="SourceAlpha" type="matrix" values="0 0 0 0 0 0 0 0 0 0 0 0 0 0 0 0 0 0 127 0" result="hardAlpha"/>
<feMorphology radius="3" operator="erode" in="SourceAlpha" result="effect3_innerShadow_438_2656"/>
<feOffset dy="-3"/>
<feGaussianBlur stdDeviation="2"/>
<feComposite in2="hardAlpha" operator="arithmetic" k2="-1" k3="1"/>
<feColorMatrix type="matrix" values="0 0 0 0 0.207843 0 0 0 0 0.580392 0 0 0 0 0.972549 0 0 0 1 0"/>
<feBlend mode="normal" in2="effect2_innerShadow_438_2656" result="effect3_innerShadow_438_2656"/>
</filter>
<filter id="filter1_d_438_2656" x="21.4724" y="6.5" width="13.0276" height="37.5234" filterUnits="userSpaceOnUse" color-interpolation-filters="sRGB">
<feFlood flood-opacity="0" result="BackgroundImageFix"/>
<feColorMatrix in="SourceAlpha" type="matrix" values="0 0 0 0 0 0 0 0 0 0 0 0 0 0 0 0 0 0 127 0" result="hardAlpha"/>
<feOffset dy="-2"/>
<feComposite in2="hardAlpha" operator="out"/>
<feColorMatrix type="matrix" values="0 0 0 0 0.172549 0 0 0 0 0.384314 0 0 0 0 0.678431 0 0 0 1 0"/>
<feBlend mode="normal" in2="BackgroundImageFix" result="effect1_dropShadow_438_2656"/>
<feBlend mode="normal" in="SourceGraphic" in2="effect1_dropShadow_438_2656" result="shape"/>
</filter>
<linearGradient id="paint0_linear_438_2656" x1="28" y1="0" x2="28" y2="52" gradientUnits="userSpaceOnUse">
<stop stop-color="#64D7FD"/>
<stop offset="1" stop-color="#43B8F8"/>
</linearGradient>
</defs>
</svg>
