<svg width="100%" viewBox="0 0 126 127" fill="none" xmlns="http://www.w3.org/2000/svg">
<g filter="url(#filter0_d_1434_5878)">
<g filter="url(#filter1_diii_1434_5878)">
<circle cx="63" cy="61" r="61" fill="url(#paint0_linear_1434_5878)"/>
<circle cx="63" cy="61" r="60.5" stroke="#0D5B1B"/>
</g>
<g filter="url(#filter2_d_1434_5878)">
<path fill-rule="evenodd" clip-rule="evenodd" d="M58.6677 59.7777L49.4524 51.1033C45.1265 46.8477 38.1227 46.8477 33.7968 51.1033L32.8979 51.9876C28.572 56.2433 28.572 63.1334 32.8979 67.389L49.941 83.7641L50.8399 84.6484C55.1658 88.904 62.1697 88.904 66.4956 84.6484L67.3944 83.7641L96.3556 55.2641C100.681 51.0085 100.681 44.1184 96.3556 39.8628L95.4567 38.9785C91.1308 34.7228 84.1269 34.7228 79.801 38.9785L58.6677 59.7777Z" fill="white"/>
<path d="M32.1966 68.1019L32.1965 68.1019L32.205 68.1101L49.2439 84.481L50.1386 85.3612L50.8399 84.6484L50.1386 85.3612C54.8537 89.9997 62.4818 89.9997 67.1969 85.3612L68.0957 84.4769L68.0959 84.4768L97.0568 55.977C97.0569 55.977 97.0569 55.9769 97.057 55.9769C101.781 51.3295 101.781 43.7973 97.0568 39.1499L96.158 38.2656C91.4429 33.6271 83.8147 33.6271 79.0997 38.2656L79.0995 38.2658L58.6523 58.3898L50.1456 50.3825C45.4299 45.752 37.8078 45.7546 33.0955 50.3905L32.1966 51.2748C27.4724 55.9222 27.4724 63.4544 32.1966 68.1019Z" stroke="#319E0E" stroke-width="2"/>
</g>
</g>
<defs>
<filter id="filter0_d_1434_5878" x="0" y="0" width="126" height="127" filterUnits="userSpaceOnUse" color-interpolation-filters="sRGB">
<feFlood flood-opacity="0" result="BackgroundImageFix"/>
<feColorMatrix in="SourceAlpha" type="matrix" values="0 0 0 0 0 0 0 0 0 0 0 0 0 0 0 0 0 0 127 0" result="hardAlpha"/>
<feOffset dy="3"/>
<feGaussianBlur stdDeviation="1"/>
<feComposite in2="hardAlpha" operator="out"/>
<feColorMatrix type="matrix" values="0 0 0 0 0.356863 0 0 0 0 0.172549 0 0 0 0 0.243137 0 0 0 0.45 0"/>
<feBlend mode="normal" in2="BackgroundImageFix" result="effect1_dropShadow_1434_5878"/>
<feBlend mode="normal" in="SourceGraphic" in2="effect1_dropShadow_1434_5878" result="shape"/>
</filter>
<filter id="filter1_diii_1434_5878" x="0" y="-3" width="126" height="130" filterUnits="userSpaceOnUse" color-interpolation-filters="sRGB">
<feFlood flood-opacity="0" result="BackgroundImageFix"/>
<feColorMatrix in="SourceAlpha" type="matrix" values="0 0 0 0 0 0 0 0 0 0 0 0 0 0 0 0 0 0 127 0" result="hardAlpha"/>
<feOffset dy="3"/>
<feGaussianBlur stdDeviation="1"/>
<feComposite in2="hardAlpha" operator="out"/>
<feColorMatrix type="matrix" values="0 0 0 0 0.356863 0 0 0 0 0.172549 0 0 0 0 0.243137 0 0 0 0.45 0"/>
<feBlend mode="normal" in2="BackgroundImageFix" result="effect1_dropShadow_1434_5878"/>
<feBlend mode="normal" in="SourceGraphic" in2="effect1_dropShadow_1434_5878" result="shape"/>
<feColorMatrix in="SourceAlpha" type="matrix" values="0 0 0 0 0 0 0 0 0 0 0 0 0 0 0 0 0 0 127 0" result="hardAlpha"/>
<feMorphology radius="2" operator="erode" in="SourceAlpha" result="effect2_innerShadow_1434_5878"/>
<feOffset dy="6"/>
<feGaussianBlur stdDeviation="1.25"/>
<feComposite in2="hardAlpha" operator="arithmetic" k2="-1" k3="1"/>
<feColorMatrix type="matrix" values="0 0 0 0 0.745098 0 0 0 0 0.976471 0 0 0 0 0.227451 0 0 0 1 0"/>
<feBlend mode="normal" in2="shape" result="effect2_innerShadow_1434_5878"/>
<feColorMatrix in="SourceAlpha" type="matrix" values="0 0 0 0 0 0 0 0 0 0 0 0 0 0 0 0 0 0 127 0" result="hardAlpha"/>
<feMorphology radius="2" operator="erode" in="SourceAlpha" result="effect3_innerShadow_1434_5878"/>
<feOffset dy="-6"/>
<feGaussianBlur stdDeviation="0.5"/>
<feComposite in2="hardAlpha" operator="arithmetic" k2="-1" k3="1"/>
<feColorMatrix type="matrix" values="0 0 0 0 0.454902 0 0 0 0 0.827451 0 0 0 0 0.141176 0 0 0 1 0"/>
<feBlend mode="normal" in2="effect2_innerShadow_1434_5878" result="effect3_innerShadow_1434_5878"/>
<feColorMatrix in="SourceAlpha" type="matrix" values="0 0 0 0 0 0 0 0 0 0 0 0 0 0 0 0 0 0 127 0" result="hardAlpha"/>
<feMorphology radius="3" operator="erode" in="SourceAlpha" result="effect4_innerShadow_1434_5878"/>
<feOffset dy="-1"/>
<feComposite in2="hardAlpha" operator="arithmetic" k2="-1" k3="1"/>
<feColorMatrix type="matrix" values="0 0 0 0 0.105882 0 0 0 0 0.556863 0 0 0 0 0.0235294 0 0 0 0.76 0"/>
<feBlend mode="normal" in2="effect3_innerShadow_1434_5878" result="effect4_innerShadow_1434_5878"/>
</filter>
<filter id="filter2_d_1434_5878" x="27.6534" y="32.7869" width="73.9465" height="57.0532" filterUnits="userSpaceOnUse" color-interpolation-filters="sRGB">
<feFlood flood-opacity="0" result="BackgroundImageFix"/>
<feColorMatrix in="SourceAlpha" type="matrix" values="0 0 0 0 0 0 0 0 0 0 0 0 0 0 0 0 0 0 127 0" result="hardAlpha"/>
<feOffset dy="-1"/>
<feComposite in2="hardAlpha" operator="out"/>
<feColorMatrix type="matrix" values="0 0 0 0 0.192157 0 0 0 0 0.619608 0 0 0 0 0.054902 0 0 0 1 0"/>
<feBlend mode="normal" in2="BackgroundImageFix" result="effect1_dropShadow_1434_5878"/>
<feBlend mode="normal" in="SourceGraphic" in2="effect1_dropShadow_1434_5878" result="shape"/>
</filter>
<linearGradient id="paint0_linear_1434_5878" x1="63" y1="0" x2="63" y2="122" gradientUnits="userSpaceOnUse">
<stop offset="0.0816754" stop-color="#98EF1D"/>
<stop offset="0.894731" stop-color="#5CC313"/>
</linearGradient>
</defs>
</svg>
